<svg width="20" height="20" viewBox="0 0 20 20" fill="none" xmlns="http://www.w3.org/2000/svg">
<g clip-path="url(#clip0_291_328)">
<path d="M19.6576 3.57727C19.4756 1.87164 18.1285 0.524292 16.4227 0.342407C12.1451 -0.114136 7.85492 -0.114136 3.57742 0.342407C1.87164 0.524445 0.524445 1.87164 0.342407 3.57727C-0.114136 7.85477 -0.114136 12.1451 0.342407 16.4226C0.524445 18.1284 1.87164 19.4756 3.57727 19.6576C7.85477 20.1141 12.1451 20.1141 16.4227 19.6576C18.1285 19.4756 19.4756 18.1284 19.6576 16.4226C20.1141 12.1451 20.1141 7.85492 19.6576 3.57727Z" fill="url(#paint0_radial_291_328)"/>
<path d="M18.5704 4.30083C18.409 2.78731 17.2136 1.59178 15.6999 1.43019C11.9042 1.02522 8.09709 1.02522 4.30132 1.43019C2.7878 1.59178 1.59227 2.78731 1.43068 4.30083C1.02571 8.0966 1.02571 11.9037 1.43068 15.6993C1.59227 17.213 2.7878 18.4085 4.30132 18.5699C8.09709 18.9751 11.9042 18.9751 15.6998 18.5699C17.2135 18.4085 18.409 17.213 18.5704 15.6993C18.9755 11.9037 18.9755 8.0966 18.5704 4.30083Z" fill="url(#paint1_linear_291_328)"/>
<path d="M0.298828 16.0078C0.312561 16.1461 0.326752 16.2843 0.341553 16.4225C0.52359 18.1282 1.87079 19.4754 3.57657 19.6574C7.85406 20.114 12.1444 20.114 16.4219 19.6574C18.1277 19.4754 19.4747 18.1282 19.6567 16.4225C19.6715 16.2843 19.6857 16.1461 19.6996 16.0078H0.298828Z" fill="url(#paint2_linear_291_328)"/>
<path d="M19.658 16.4224C19.9033 14.124 20.0166 11.8219 19.9983 9.52008L15.4267 4.94855C14.8556 4.29654 14.0214 3.88959 13.0412 3.85434C11.0253 3.78171 9.00308 3.78537 6.98694 3.85465C5.31244 3.91233 4.14148 5.03781 3.84119 6.69202C3.78824 6.98407 3.7565 7.27994 3.71484 7.57413V12.4237C3.73788 12.5808 3.77176 12.7372 3.78229 12.8953C3.84943 13.9015 4.26294 14.7633 4.92502 15.3463L9.57712 19.9983C11.8601 20.0143 14.1433 19.9008 16.4231 19.6574C18.1289 19.4754 19.476 18.1282 19.658 16.4224Z" fill="url(#paint3_linear_291_328)"/>
<path d="M3.71484 7.57413C3.7565 7.27994 3.78824 6.98407 3.84119 6.69202C4.14133 5.03781 5.31244 3.91233 6.98694 3.85465C9.00308 3.78537 11.0253 3.78171 13.0412 3.85434C14.8637 3.91996 16.1836 5.26944 16.2405 7.09256C16.3011 9.02845 16.3011 10.9691 16.2405 12.9049C16.1836 14.7281 14.8641 16.0774 13.0413 16.1432C11.0255 16.2159 9.00278 16.2178 6.98709 16.1421C5.16428 16.0736 3.90421 14.721 3.78229 12.8952C3.77176 12.7372 3.73788 12.5807 3.71484 12.4235C3.71484 10.807 3.71484 9.19049 3.71484 7.57413ZM10.0021 15.0627C10.9246 15.0627 11.8481 15.0903 12.7694 15.0563C14.214 15.0027 15.1025 14.1406 15.1362 12.6974C15.178 10.8992 15.178 9.09848 15.1362 7.30008C15.1025 5.85721 14.2133 4.97495 12.7694 4.94428C10.9367 4.90552 9.10196 4.90583 7.26923 4.94428C5.83627 4.97434 4.94516 5.83875 4.90625 7.26575C4.85681 9.08673 4.85681 10.9109 4.90625 12.7319C4.94516 14.1588 5.83627 15.0032 7.26938 15.0563C8.17911 15.0902 9.09113 15.0627 10.0021 15.0627Z" fill="url(#paint4_linear_291_328)"/>
<path d="M3.71484 7.57413C3.7565 7.27994 3.78824 6.98407 3.84119 6.69202C4.14133 5.03781 5.31244 3.91233 6.98694 3.85465C9.00308 3.78537 11.0253 3.78171 13.0412 3.85434C14.8637 3.91996 16.1836 5.26944 16.2405 7.09256C16.3011 9.02845 16.3011 10.9691 16.2405 12.9049C16.1836 14.7281 14.8641 16.0774 13.0413 16.1432C11.0255 16.2159 9.00278 16.2178 6.98709 16.1421C5.16428 16.0736 3.90421 14.721 3.78229 12.8952C3.77176 12.7372 3.73788 12.5807 3.71484 12.4235C3.71484 10.807 3.71484 9.19049 3.71484 7.57413ZM10.0021 15.0627C10.9246 15.0627 11.8481 15.0903 12.7694 15.0563C14.214 15.0027 15.1025 14.1406 15.1362 12.6974C15.178 10.8992 15.178 9.09848 15.1362 7.30008C15.1025 5.85721 14.2133 4.97495 12.7694 4.94428C10.9367 4.90552 9.10196 4.90583 7.26923 4.94428C5.83627 4.97434 4.94516 5.83875 4.90625 7.26575C4.85681 9.08673 4.85681 10.9109 4.90625 12.7319C4.94516 14.1588 5.83627 15.0032 7.26938 15.0563C8.17911 15.0902 9.09113 15.0627 10.0021 15.0627Z" fill="white"/>
<path d="M10.0003 6.79639C8.2312 6.79639 6.79688 8.23056 6.79688 9.99967C6.79688 11.7689 8.2312 13.2031 10.0003 13.2031C11.7696 13.2031 13.2037 11.7689 13.2037 9.99967C13.2037 8.23056 11.7696 6.79639 10.0003 6.79639ZM10.0003 12.1002C8.84018 12.1002 7.89978 11.1598 7.89978 9.99967C7.89978 8.83954 8.84018 7.89914 10.0003 7.89914C11.1604 7.89914 12.1008 8.83954 12.1008 9.99967C12.1008 11.1598 11.1604 12.1002 10.0003 12.1002Z" fill="white"/>
<path d="M14.1531 6.65036C14.1531 7.0712 13.8119 7.41238 13.3911 7.41238C12.9702 7.41238 12.6289 7.0712 12.6289 6.65036C12.6289 6.22937 12.9702 5.88818 13.3911 5.88818C13.8119 5.88818 14.1531 6.22937 14.1531 6.65036Z" fill="white"/>
</g>
<defs>
<radialGradient id="paint0_radial_291_328" cx="0" cy="0" r="1" gradientUnits="userSpaceOnUse" gradientTransform="translate(4.09989 17.4784) scale(22.0565)">
<stop stop-color="#FAE100"/>
<stop offset="0.0544" stop-color="#FADC04"/>
<stop offset="0.1167" stop-color="#FBCE0E"/>
<stop offset="0.1829" stop-color="#FCB720"/>
<stop offset="0.2514" stop-color="#FE9838"/>
<stop offset="0.3054" stop-color="#FF7950"/>
<stop offset="0.4922" stop-color="#FF1C74"/>
<stop offset="1" stop-color="#6C1CD1"/>
</radialGradient>
<linearGradient id="paint1_linear_291_328" x1="7.67143" y1="8.68997" x2="-26.2109" y2="-10.3689" gradientUnits="userSpaceOnUse">
<stop stop-color="#A1B5D8" stop-opacity="0"/>
<stop offset="0.3094" stop-color="#90A2BD" stop-opacity="0.309804"/>
<stop offset="0.7554" stop-color="#7C8B9C" stop-opacity="0.756863"/>
<stop offset="1" stop-color="#748290"/>
</linearGradient>
<linearGradient id="paint2_linear_291_328" x1="9.99916" y1="17.6547" x2="9.99916" y2="20.7722" gradientUnits="userSpaceOnUse">
<stop stop-color="#FAE100" stop-opacity="0"/>
<stop offset="0.3068" stop-color="#FCA800" stop-opacity="0.305882"/>
<stop offset="0.6275" stop-color="#FE7300" stop-opacity="0.627451"/>
<stop offset="0.8685" stop-color="#FF5200" stop-opacity="0.866667"/>
<stop offset="1" stop-color="#FF4500"/>
</linearGradient>
<linearGradient id="paint3_linear_291_328" x1="8.8626" y1="8.83372" x2="3.91292" y2="3.88404" gradientUnits="userSpaceOnUse">
<stop stop-color="#833AB4" stop-opacity="0"/>
<stop offset="1" stop-color="#833AB4"/>
</linearGradient>
<linearGradient id="paint4_linear_291_328" x1="13.9714" y1="6.05644" x2="5.88097" y2="14.1469" gradientUnits="userSpaceOnUse">
<stop stop-color="#833AB4"/>
<stop offset="0.0922" stop-color="#9C3495"/>
<stop offset="0.2927" stop-color="#DC2546"/>
<stop offset="0.392" stop-color="#FD1D1D"/>
<stop offset="0.5589" stop-color="#FC6831"/>
<stop offset="0.6887" stop-color="#FC9B40"/>
<stop offset="0.7521" stop-color="#FCAF45"/>
<stop offset="0.7806" stop-color="#FDB750"/>
<stop offset="0.8656" stop-color="#FECB6A"/>
<stop offset="0.9415" stop-color="#FFD87A"/>
<stop offset="1" stop-color="#FFDC80"/>
</linearGradient>
<clipPath id="clip0_291_328">
<rect width="20" height="20" fill="white"/>
</clipPath>
</defs>
</svg>